<?xml version="1.0" ?><!DOCTYPE svg  PUBLIC '-//W3C//DTD SVG 1.1//EN'  'http://www.w3.org/Graphics/SVG/1.1/DTD/svg11.dtd'><svg enable-background="new 0 0 64 64" height="64px" id="Layer_1" version="1.1" viewBox="0 0 64 64" width="64px" xml:space="preserve" xmlns="http://www.w3.org/2000/svg" xmlns:xlink="http://www.w3.org/1999/xlink"><g id="Ethereum_ETH"><g><g><g><g><g><g><g><circle cx="32" cy="32" fill="#FFFFFF" r="26.5"/></g></g></g><g><g><g><g><path d="M58,32c0-11.868-7.996-21.897-18.881-25.001C37.462,6.675,35.752,6.5,34,6.5           C19.365,6.5,7.5,18.365,7.5,33c0,7.773,3.348,14.765,8.679,19.612C20.565,55.987,26.051,58,32,58           C46.337,58,58,46.337,58,32z" fill="#FFE57F"/></g></g></g></g><g><g><g><path d="M42.852,7.825C50.99,12.349,56.5,21.029,56.5,31c0,14.635-11.865,26.5-26.5,26.5          c-3.868,0-7.539-0.836-10.852-2.325C22.955,57.291,27.336,58.5,32,58.5c14.635,0,26.5-11.865,26.5-26.5          C58.5,21.233,52.074,11.973,42.852,7.825z" fill="#FFD740"/></g></g></g><g><g><g><path d="M32,59C17.112,59,5,46.888,5,32S17.112,5,32,5s27,12.112,27,27S46.888,59,32,59z M32,6          C17.663,6,6,17.663,6,32s11.663,26,26,26s26-11.663,26-26S46.337,6,32,6z" fill="#37474F"/></g></g></g></g><g><g><g><g><circle cx="32" cy="32" fill="#FFD740" r="22.5"/></g></g></g><g><g><g><path d="M11.5,33c0-12.426,10.074-22.5,22.5-22.5c3.212,0,6.265,0.678,9.029,1.892          C39.77,10.554,36.009,9.5,32,9.5C19.574,9.5,9.5,19.574,9.5,32c0,9.214,5.541,17.129,13.471,20.608          C16.126,48.75,11.5,41.417,11.5,33z" fill="#FFCA28"/></g></g></g><g><g><g><path d="M41.029,11.392C47.874,15.25,52.5,22.583,52.5,31c0,12.426-10.074,22.5-22.5,22.5          c-3.212,0-6.265-0.678-9.029-1.892C24.23,53.446,27.991,54.5,32,54.5c12.426,0,22.5-10.074,22.5-22.5          C54.5,22.786,48.959,14.871,41.029,11.392z" fill="#FFE57F"/></g></g></g><g><g><g><path d="M32,55C19.317,55,9,44.683,9,32S19.317,9,32,9s23,10.317,23,23S44.683,55,32,55z M32,10          c-12.131,0-22,9.869-22,22s9.869,22,22,22s22-9.869,22-22S44.131,10,32,10z" fill="#37474F"/></g></g></g></g></g></g></g><g><g><g><g><g><polygon fill="#FFFFFF" points="21.379,32.168 31.997,14.551 42.614,32.168 31.997,38.443       "/></g></g></g><g><g><g><polygon fill="#FFE57F" points="41.926,31.994 31.997,15.52 23.067,32.994 31.997,37.863       "/></g></g></g><g><g><g><path d="M31.997,15.52l9.929,16.475l-9.929,5.869l-9.93-5.869L31.997,15.52L31.997,15.52z M31.997,13.582        L20.69,32.342l11.307,6.683l11.306-6.683L31.997,13.582L31.997,13.582z" fill="#37474F"/></g></g></g></g><g><g><g><g><path d="M31.997,28.667l9.086,3.825l-9.086,5.371l-9.087-5.371L31.997,28.667L31.997,28.667z M31.997,27.582        l-11.307,4.76l11.307,6.683l11.306-6.683L31.997,27.582L31.997,27.582z" fill="#37474F"/></g></g></g></g><g><g><g><g><polygon fill="#FFFFFF" points="22.456,36.109 31.997,41.746 41.544,36.108 31.998,49.554       "/></g></g></g><g><g><g><polygon fill="#FFE57F" points="39.778,37.732 32.505,42.026 31.997,42.326 31.488,42.026 25.222,37.732 31.998,48.689               "/></g></g></g><g><g><g><path d="M39.778,37.732l-7.78,10.957l-7.776-10.957l7.267,4.294l0.509,0.3l0.508-0.3L39.778,37.732        L39.778,37.732z M43.311,34.485l-11.313,6.68l-11.306-6.68L32,50.416v0.002L43.311,34.485L43.311,34.485z" fill="#37474F"/></g></g></g></g></g><g><g><g><rect fill="#37474F" height="22.792" width="1" x="31.5" y="15.461"/></g></g></g><g><g><g><rect fill="#37474F" height="7.874" width="1" x="31.5" y="41.337"/></g></g></g></g></svg>